PathFileType	4	(X/Y/Z)	22_coords_data.trc
DataRate	CameraRate	NumFrames	NumMarkers	Units	OrigDataRate	OrigDataStartFrame	OrigNumFrames
30.0	30.0	9	21	m	30.0	20	59
Frame#	Time	THUMB_TIP	THUMB_IP	THUMB_MCP	THUMB_CMC	INDEX_TIP	INDEX_DIP	INDEX_PIP	INDEX_MCP	MIDDLE_TIP	MIDDLE_DIP	MIDDLE_PIP	MIDDLE_MCP	RING_TIP	RING_DIP	RING_PIP	RING_MCP	PINKY_TIP	PINKY_DIP	PINKY_PIP	PINKY_MCP	WRIST
X1	Y1	Z1	X2	Y2	Z2	X3	Y3	Z3	X4	Y4	Z4	X5	Y5	Z5	X6	Y6	Z6	X7	Y7	Z7	X8	Y8	Z8	X9	Y9	Z9	X10	Y10	Z10	X11	Y11	Z11	X12	Y12	Z12	X13	Y13	Z13	X14	Y14	Z14	X15	Y15	Z15	X16	Y16	Z16	X17	Y17	Z17	X18	Y18	Z18	X19	Y19	Z19	X20	Y20	Z20	X21	Y21	Z21
18	0.6333333333333304	0.5493674534573485	-0.02715798365115274	-0.11384377332589654	0.5291425991982314	-0.02103092605624368	-0.1228667681405986	0.5000469409870872	-0.014449970637075649	-0.1139811787380207	0.4750841188451216	-0.01877756229966443	-0.07726579420904585	0.5630199440205327	0.06542957518912262	-0.15535186134094514	0.5518973938675616	0.054849954796530875	-0.1457414237628063	0.5358645405733764	0.04379740579077862	-0.12984178198311258	0.510783301527643	0.02742822060752592	-0.0995660934134507	0.5200487692178039	-0.019003249927193155	-0.10766517370099739	0.5349923404071534	-0.01366983316253112	-0.11639697453033737	0.5484102896009204	0.011982222766924178	-0.11302945080724598	0.520567266377529	0.0260446028866399	-0.08104252466311153	0.5302023022859809	-0.021843383799453053	-0.10057386746080367	0.545956072674394	-0.013769579187436598	-0.10398449755451657	0.5585106336676114	0.006140945894719141	-0.09585221815569869	0.5301840531550097	0.015992003068241556	-0.0687361280425003	0.5987947738885445	0.02056749314120576	-0.08691963291760438	0.5837739764300192	0.013312574281347134	-0.0830801282559554	0.5646441933199002	0.0062282487779850015	-0.0781126591496376	0.5321325450318299	-0.0032954130793333425	-0.06573622826588599	0.46228308100186083	-0.023011742144276925	-0.051989820119430985
19	0.6666666666666637	0.5493580553299245	-0.027303985606334735	-0.11320469447992315	0.5293016128299748	-0.021178882725241044	-0.12259736337338617	0.5001600133047175	-0.01452490334259604	-0.11391912994227482	0.4751206088407517	-0.01877529949450918	-0.07724690125840925	0.5631792774195763	0.06519483591580921	-0.15535635140710177	0.5520494669471314	0.05461159474665733	-0.14575831383669055	0.5360114090199255	0.043545365680682124	-0.12987344351355135	0.5108731292485281	0.02736082144716534	-0.09954584037567876	0.5198320279555061	-0.01898811537925993	-0.10763802306710984	0.5348066666753454	-0.013798358055938098	-0.11640310231006692	0.5484388013063665	0.011746158895766912	-0.1130786310580078	0.5206675065313604	0.02590721946851582	-0.08107288983905367	0.5300188839473993	-0.021798438158742495	-0.10064519743400055	0.5458355796206558	-0.013865383285152189	-0.10409465802258486	0.5585627386739571	0.005936979498121997	-0.09596656909396423	0.5302826859943185	0.015790886531813708	-0.06880299107838922	0.598829019665301	0.02017705051619645	-0.08722426448151688	0.5838020880117641	0.012952194654420324	-0.08335221297663045	0.5646780166233436	0.005866718877748256	-0.07836443335551785	0.5321573761635591	-0.003486642647135385	-0.06588220505804407	0.46228308100186083	-0.023011742144276925	-0.051989820119430985
20	0.6999999999999968	0.5495264885328972	-0.02776288877937505	-0.1129740245381191	0.5295068779893097	-0.021522130617060875	-0.12236913663125519	0.5003620701817567	-0.014722802214729325	-0.11381523043945947	0.4751767544262848	-0.018816769417339563	-0.07722521400271636	0.5636469824186048	0.06458620641875756	-0.15535329839405804	0.5524395578026728	0.054108195263002035	-0.14573015360152447	0.5363369772710107	0.043170170255383944	-0.12982178026689162	0.5110253587145285	0.027266643183823436	-0.09948968692114159	0.5194202617075231	-0.01895483356625416	-0.107621707265579	0.5345200289529478	-0.0139810455663959	-0.11629687078371888	0.5485366143963853	0.01135680450599108	-0.11298957034135576	0.5208235934608247	0.025743516976303282	-0.0810339934271183	0.5297077810489702	-0.02202817704574167	-0.10093669113618033	0.5456035692909073	-0.014120625735865588	-0.10406631546653967	0.5586214877900184	0.005494858042135786	-0.09594556592567417	0.5304165223469639	0.01556414984303911	-0.06878290550765966	0.5990264173986988	0.019367323759726496	-0.08746047183826242	0.5839623666484172	0.012261567919485516	-0.08351299049798717	0.5648078242447007	0.005317584537867903	-0.07844380722056998	0.5322131272066946	-0.00371179550007239	-0.06591625869218475	0.4622830810018609	-0.023011742144276925	-0.051989820119430985
21	0.7333333333333302	0.5497727226719681	-0.02831015691819061	-0.11342496884004451	0.5296079789453592	-0.021779661723646537	-0.12229828518480686	0.5005154110758007	-0.01476829833303095	-0.11373771989039617	0.4752979363993381	-0.018850809392355505	-0.07716857887789137	0.5645800268781346	0.06354544563231246	-0.155197679710584	0.5531778979151827	0.05336663500068961	-0.145482574500769	0.5368701903464272	0.0428134225680199	-0.12952330715533922	0.5112212466122209	0.027263089721703326	-0.09929161967864865	0.5192590356236179	-0.01908296154009481	-0.10773658795806822	0.5345655525156324	-0.01404290862046187	-0.11600147798769181	0.5488811788178224	0.011107749572114023	-0.11254940816564794	0.5209955193160223	0.02566303706123363	-0.0808211633156922	0.5295796671965091	-0.022057090922247502	-0.10107343326658108	0.5455570574111723	-0.014134017026255274	-0.10370932058720628	0.5588272518337849	0.0052987004454738695	-0.09555754712065212	0.5305377942009123	0.015463746748605955	-0.06851869998374385	0.5994049518885053	0.018321041894085233	-0.08730056903849896	0.5842583249967689	0.011467499830980499	-0.08322519727732465	0.5650267919370904	0.004802938973450188	-0.07807313130814564	0.5322828070674348	-0.0037292552404122326	-0.06558647572097188	0.4622830810018609	-0.023011742144276925	-0.051989820119430985
22	0.7666666666666633	0.5501949457931172	-0.028502503383129985	-0.11468329755053747	0.5296453195810026	-0.02175444485943867	-0.1224406533309055	0.500622322964437	-0.014705180966944176	-0.11367746064965076	0.4754341023231623	-0.018805118865018455	-0.07709011242436391	0.5659569449474131	0.062243778682235074	-0.15468391410500681	0.554218297505833	0.05259178570339906	-0.1448328640199253	0.5375233857030302	0.04272385977383397	-0.12883555828598203	0.511342295999319	0.027529931021088916	-0.09888007189395794	0.519981733424627	-0.019366877941694005	-0.10807481512093933	0.5354491947833521	-0.013697177328052867	-0.1155989186601008	0.5495222926835064	0.01151241918917989	-0.11161975933544355	0.521030331366906	0.02589459429623775	-0.08035461739552471	0.530153252984678	-0.02189648436448488	-0.10112978777200102	0.5460863694322428	-0.013665858444465329	-0.10297168821259085	0.5591565104385784	0.005811115458157712	-0.09460515484021706	0.5304996420975429	0.01579578853761776	-0.06788791257270624	0.5998293126823263	0.017778702441163752	-0.08631502243073408	0.5845781729130706	0.01123201053216949	-0.08212651902410607	0.5652451688318537	0.004884712850736994	-0.07695362966332026	0.5323072543783431	-0.0032137304935464517	-0.06469016939092326	0.4622830810018609	-0.023011742144276925	-0.051989820119430985
23	0.7999999999999965	0.5507991041355605	-0.027915131175201835	-0.11667027792429233	0.5296734643281029	-0.02121598006080272	-0.12273894475251784	0.500702314728794	-0.01441007673848671	-0.11361906696486329	0.4756623890067948	-0.018709973838791583	-0.07695296538910873	0.5678407110487489	0.060743396287584184	-0.15356467813454297	0.5556001233507676	0.05184950008729283	-0.1436114563854574	0.5383048857704789	0.04296811822462088	-0.12767390179729138	0.5113834463010241	0.028098472826543763	-0.09821603635140522	0.5218798464000705	-0.01968839919480503	-0.10852093745899202	0.5373719113288357	-0.012866939756572604	-0.11496016220856181	0.5505034327556173	0.012688477562735723	-0.11007208071844976	0.5209163446174699	0.02647859042950862	-0.07956659066129501	0.531929403726062	-0.021733186535116245	-0.10111169995506944	0.5474795226287404	-0.0126402475807742	-0.10182742566033018	0.5596541064145517	0.007189223154777102	-0.09295321702010881	0.5302811706005991	0.016597331649268687	-0.0668105513139246	0.600245521692457	0.018136918890608977	-0.08413333681384524	0.5848810913159815	0.011877836048649226	-0.07991929348422444	0.5654314399858469	0.005812730182241821	-0.07484607232154425	0.5322628131156933	-0.002141817500054488	-0.0631221304196665	0.4622830810018609	-0.023011742144276925	-0.051989820119430985
24	0.8333333333333297	0.5516198657851752	-0.026222778051006257	-0.11930256529689777	0.5298724090865331	-0.019894398355205012	-0.12317551476293263	0.5009351191003617	-0.013841445377742345	-0.1134382149057419	0.47607905967169906	-0.01855984807719968	-0.07669854988760995	0.5703838096062447	0.05902600053159557	-0.15150833487419485	0.5574686437680387	0.051149859139575926	-0.1415501780093652	0.5393498330825417	0.04354642596561664	-0.1258687770415865	0.5113917662285481	0.02894347933014174	-0.09725520436446165	0.5254619527776141	-0.02008753945888886	-0.10879591590801872	0.5405593424670041	-0.011420055239222737	-0.11379026690374755	0.5518569019574342	0.014752739815661386	-0.10772730569859139	0.5206535680567145	0.027431422945356387	-0.07837171221835354	0.5351976870090545	-0.02135050630077373	-0.10066942601184964	0.549907830195279	-0.010949891229458553	-0.10000693557486177	0.5603738202103737	0.009496401644203956	-0.09038445461991229	0.5298682906625143	0.017854099538069046	-0.06519949111150986	0.6005782192850535	0.01945517861490942	-0.08059775822132526	0.585094200438355	0.013428600734182505	-0.07648369460944233	0.5655267995412586	0.007545739154905862	-0.07165453518244236	0.5320887038767464	-0.0005124394780158248	-0.06079898515257947	0.46228308100186094	-0.023011742144276925	-0.051989820119430985
25	0.8666666666666629	0.552809352529786	-0.023291757465757845	-0.12198700885479327	0.5305255416363104	-0.017849190667011294	-0.12333245997058866	0.5015891982397545	-0.013008149675280412	-0.11293667462493152	0.47670159864193684	-0.01841059310039661	-0.07631276179059432	0.5736555621623214	0.05734315144474966	-0.14801019394272225	0.5599278849258446	0.050674960060327234	-0.13825898369210052	0.5407914383857687	0.044487326558233176	-0.1231752361981062	0.5114687755891717	0.030039924964662568	-0.09587889710819955	0.5310171011716806	-0.01987380652066484	-0.10821181073988169	0.5451016190982335	-0.00902470954296486	-0.11166484557102233	0.5535530312423065	0.017900810154686475	-0.10438476509190606	0.5202378809243813	0.02875708653566844	-0.07666491762779143	0.5400129426859603	-0.02030916426612206	-0.09923116427267063	0.5533018069154169	-0.008321267474514449	-0.09706404221684783	0.5612506123465971	0.012851446566860325	-0.08663750629452838	0.5291959231726889	0.019592619769336794	-0.0629357274621632	0.6007298226818586	0.021737376602100067	-0.07537132210676221	0.5851183187429306	0.015851737280434985	-0.07154507139096904	0.5654192737776664	0.010032643105213124	-0.06719791261351463	0.5316732507774997	0.0016954054505684546	-0.05757607022433601	0.46228308100186083	-0.023011742144276925	-0.051989820119430985
26	0.8999999999999961	0.5542470503584193	-0.019325457527568646	-0.12425844932944163	0.5316873510617294	-0.015150045463220407	-0.12298334081020743	0.5027365837481208	-0.011904514284575063	-0.11202251970402499	0.4775544618151988	-0.01817746383533192	-0.07574028108939279	0.5774036604020332	0.0560657389328717	-0.1427982225404447	0.5627830427893203	0.05065910350105052	-0.13357836169929294	0.5425080460806172	0.04585235289373357	-0.11951317453163895	0.511560830242686	0.03139603765631205	-0.09407853524509138	0.5385460521020172	-0.018554504985136	-0.10635681523468746	0.5507459255295118	-0.005304318271057262	-0.10825303262601185	0.5552965178447037	0.022259941739641076	-0.09995163336784221	0.5195270796826582	0.030511794399032177	-0.07448396480043495	0.5463795894400298	-0.018163330280526968	-0.09644605333756087	0.5573911693506033	-0.004350695861852549	-0.0928465758353243	0.5619177044038214	0.0174573361985505	-0.08170654903713295	0.5280602138796737	0.021937338538552287	-0.060065829353147505	0.6002906206934334	0.02553611148775914	-0.06837993627300004	0.5845739959304977	0.01961917210967412	-0.06506670002166715	0.5647680634278804	0.013649323784934553	-0.06147532595574643	0.5307624263890937	0.004645256433902234	-0.05351122702841191	0.4622830810018609	-0.023011742144276925	-0.051989820119430985
